<svg xmlns="http://www.w3.org/2000/svg" width="261" height="32" viewBox="0 0 261 32" fill="none"><path d="M251.262 0.502014C252.52 0.502014 253.534 0.662014 254.302 0.982014C255.07 1.28068 255.624 1.72868 255.966 2.32602C256.328 2.90201 256.51 3.61668 256.51 4.47001V11.094C256.51 12.2887 256.776 13.142 257.31 13.654C257.864 14.166 258.792 14.422 260.094 14.422V16.662C258.792 16.662 257.864 16.918 257.31 17.43C256.776 17.942 256.51 18.7953 256.51 19.99V26.614C256.51 27.446 256.328 28.1607 255.966 28.758C255.624 29.3553 255.07 29.8034 254.302 30.102C253.534 30.422 252.52 30.582 251.262 30.582V28.502C252.307 28.502 253.043 28.3633 253.47 28.086C253.896 27.8087 254.11 27.382 254.11 26.806V19.766C254.11 18.614 254.419 17.686 255.038 16.982C255.678 16.278 256.584 15.798 257.758 15.542C256.584 15.286 255.678 14.806 255.038 14.102C254.419 13.398 254.11 12.47 254.11 11.318V4.27802C254.11 3.70201 253.896 3.27535 253.47 2.99801C253.043 2.72068 252.307 2.58201 251.262 2.58201V0.502014Z" fill="#4B6BFB"></path><path d="M241.408 30.582L239.936 29.11C241.344 27.8087 242.464 26.454 243.296 25.046C244.128 23.638 244.725 22.1447 245.088 20.566C245.45 18.9873 245.632 17.3127 245.632 15.542C245.632 13.75 245.45 12.0753 245.088 10.518C244.725 8.93935 244.128 7.44601 243.296 6.03802C242.464 4.60868 241.344 3.25401 239.936 1.97401L241.408 0.502014C243.669 2.44335 245.376 4.68335 246.528 7.22202C247.68 9.76068 248.256 12.534 248.256 15.542C248.256 18.55 247.68 21.3233 246.528 23.862C245.376 26.3793 243.669 28.6193 241.408 30.582Z" fill="#F58220"></path><path d="M233.679 3.44601V18.838C233.679 19.606 233.86 20.1607 234.223 20.502C234.607 20.822 235.13 20.982 235.791 20.982C236.303 20.982 236.74 20.9287 237.103 20.822C237.487 20.694 237.828 20.5127 238.127 20.278L238.703 23.638C238.17 24.022 237.498 24.3207 236.687 24.534C235.876 24.7473 235.044 24.854 234.191 24.854C232.975 24.854 231.919 24.6833 231.023 24.342C230.148 24.0007 229.466 23.4567 228.975 22.71C228.506 21.9634 228.26 20.9713 228.239 19.734V4.95001L233.679 3.44601ZM238.447 8.53402V12.406H225.487V8.53402H238.447Z" fill="#F58220"></path><path d="M216.649 24.854C215.049 24.854 213.555 24.598 212.169 24.086C210.803 23.5527 209.673 22.7954 208.777 21.814L211.337 18.806C211.87 19.4887 212.574 20.0647 213.449 20.534C214.345 20.982 215.337 21.206 216.425 21.206C217.086 21.206 217.63 21.11 218.057 20.918C218.483 20.726 218.697 20.4274 218.697 20.022C218.697 19.7234 218.59 19.4887 218.377 19.318C218.163 19.126 217.737 18.966 217.097 18.838L214.857 18.39C212.851 17.9847 211.422 17.3874 210.569 16.598C209.737 15.7874 209.321 14.7314 209.321 13.43C209.321 12.5554 209.587 11.7234 210.121 10.934C210.654 10.1234 211.475 9.47269 212.585 8.98202C213.694 8.47002 215.113 8.21402 216.841 8.21402C218.462 8.21402 219.891 8.44869 221.129 8.91802C222.366 9.38735 223.347 10.07 224.073 10.966L221.481 13.91C220.969 13.27 220.307 12.7687 219.497 12.406C218.686 12.0434 217.875 11.862 217.065 11.862C216.553 11.862 216.115 11.9154 215.753 12.022C215.411 12.1074 215.155 12.2354 214.985 12.406C214.814 12.5767 214.729 12.79 214.729 13.046C214.729 13.3234 214.857 13.5687 215.113 13.782C215.39 13.974 215.891 14.1447 216.617 14.294L219.529 14.87C221.171 15.1687 222.355 15.7127 223.081 16.502C223.806 17.2914 224.169 18.2407 224.169 19.35C224.169 20.3954 223.891 21.334 223.337 22.166C222.782 22.998 221.95 23.6594 220.841 24.15C219.731 24.6194 218.334 24.854 216.649 24.854Z" fill="#F58220"></path><path d="M199.205 24.854C197.435 24.854 195.899 24.5234 194.597 23.862C193.317 23.2007 192.325 22.2514 191.621 21.014C190.917 19.7767 190.565 18.2834 190.565 16.534C190.565 14.7847 190.917 13.2914 191.621 12.054C192.325 10.8167 193.307 9.86735 194.565 9.20602C195.845 8.54469 197.307 8.21402 198.949 8.21402C200.635 8.21402 202.064 8.54469 203.237 9.20602C204.432 9.84602 205.339 10.742 205.957 11.894C206.576 13.0247 206.885 14.326 206.885 15.798C206.885 16.182 206.875 16.566 206.853 16.95C206.832 17.334 206.8 17.654 206.757 17.91H194.085V14.998H204.357L201.765 15.99C201.765 14.71 201.531 13.7287 201.061 13.046C200.613 12.3634 199.909 12.022 198.949 12.022C198.267 12.022 197.68 12.182 197.189 12.502C196.72 12.822 196.357 13.3234 196.101 14.006C195.867 14.6887 195.749 15.5634 195.749 16.63C195.749 17.6754 195.888 18.5287 196.165 19.19C196.443 19.83 196.837 20.2994 197.349 20.598C197.861 20.8754 198.48 21.014 199.205 21.014C200.016 21.014 200.656 20.854 201.125 20.534C201.616 20.214 201.979 19.766 202.213 19.19L206.565 20.63C206.267 21.5474 205.744 22.326 204.997 22.966C204.272 23.5847 203.397 24.054 202.373 24.374C201.371 24.694 200.315 24.854 199.205 24.854Z" fill="#F58220"></path><path d="M176.993 24.854C175.905 24.854 174.945 24.6727 174.113 24.31C173.302 23.926 172.662 23.318 172.193 22.486C171.723 21.654 171.489 20.566 171.489 19.222V8.53403H176.929V17.942C176.929 18.966 177.131 19.6807 177.537 20.086C177.942 20.4914 178.518 20.694 179.265 20.694C179.649 20.694 180.011 20.63 180.353 20.502C180.694 20.3527 180.993 20.1394 181.249 19.862C181.505 19.5634 181.697 19.19 181.825 18.742C181.974 18.2727 182.049 17.7287 182.049 17.11V8.53403H187.489V24.534H182.625L182.465 21.526C181.953 22.6567 181.238 23.4994 180.321 24.054C179.403 24.5874 178.294 24.854 176.993 24.854Z" fill="#F58220"></path><path d="M162.242 31.254V19.19L162.818 19.894C162.69 20.8754 162.381 21.7394 161.89 22.486C161.4 23.2327 160.781 23.8194 160.034 24.246C159.288 24.6514 158.413 24.854 157.41 24.854C156.109 24.854 154.957 24.5234 153.954 23.862C152.973 23.2007 152.205 22.2407 151.65 20.982C151.096 19.7234 150.818 18.2194 150.818 16.47C150.818 14.7207 151.096 13.238 151.65 12.022C152.226 10.7847 153.016 9.84602 154.018 9.20602C155.042 8.54469 156.205 8.21402 157.506 8.21402C158.552 8.21402 159.469 8.44869 160.258 8.91802C161.069 9.38735 161.72 10.038 162.21 10.87C162.722 11.702 163.032 12.662 163.138 13.75L162.498 14.262L162.786 8.53402H167.682V31.254H162.242ZM159.298 20.854C159.917 20.854 160.44 20.6834 160.866 20.342C161.314 20.0007 161.656 19.51 161.89 18.87C162.125 18.2087 162.242 17.4194 162.242 16.502C162.242 15.542 162.125 14.7527 161.89 14.134C161.656 13.494 161.314 13.014 160.866 12.694C160.44 12.374 159.928 12.214 159.33 12.214C158.392 12.214 157.645 12.566 157.09 13.27C156.557 13.9527 156.29 15.0407 156.29 16.534C156.29 18.0274 156.557 19.126 157.09 19.83C157.624 20.5127 158.36 20.854 159.298 20.854Z" fill="#F58220"></path><path d="M147.183 0.502014L148.655 1.97401C147.247 3.25401 146.127 4.60868 145.295 6.03802C144.463 7.44601 143.865 8.93935 143.503 10.518C143.14 12.0753 142.959 13.75 142.959 15.542C142.959 17.3127 143.14 18.9873 143.503 20.566C143.865 22.1447 144.463 23.638 145.295 25.046C146.127 26.454 147.247 27.8087 148.655 29.11L147.183 30.582C144.921 28.6193 143.215 26.3793 142.063 23.862C140.911 21.3233 140.335 18.55 140.335 15.542C140.335 12.534 140.911 9.76068 142.063 7.22202C143.215 4.68335 144.921 2.44335 147.183 0.502014Z" fill="#F58220"></path><path d="M132.797 8.53403H138.429L132.669 24.534H126.173L120.413 8.53403H126.141L129.437 20.726L132.797 8.53403Z" fill="#4B6BFB"></path><path d="M112.174 24.854C110.403 24.854 108.867 24.5234 107.566 23.862C106.286 23.2007 105.294 22.2514 104.59 21.014C103.886 19.7767 103.534 18.2834 103.534 16.534C103.534 14.7847 103.886 13.2914 104.59 12.054C105.294 10.8167 106.275 9.86735 107.534 9.20602C108.814 8.54469 110.275 8.21402 111.918 8.21402C113.603 8.21402 115.033 8.54469 116.206 9.20602C117.401 9.84602 118.307 10.742 118.926 11.894C119.545 13.0247 119.854 14.326 119.854 15.798C119.854 16.182 119.843 16.566 119.822 16.95C119.801 17.334 119.769 17.654 119.726 17.91H107.054V14.998H117.326L114.734 15.99C114.734 14.71 114.499 13.7287 114.03 13.046C113.582 12.3634 112.878 12.022 111.918 12.022C111.235 12.022 110.649 12.182 110.158 12.502C109.689 12.822 109.326 13.3234 109.07 14.006C108.835 14.6887 108.718 15.5634 108.718 16.63C108.718 17.6754 108.857 18.5287 109.134 19.19C109.411 19.83 109.806 20.2994 110.318 20.598C110.83 20.8754 111.449 21.014 112.174 21.014C112.985 21.014 113.625 20.854 114.094 20.534C114.585 20.214 114.947 19.766 115.182 19.19L119.534 20.63C119.235 21.5474 118.713 22.326 117.966 22.966C117.241 23.5847 116.366 24.054 115.342 24.374C114.339 24.694 113.283 24.854 112.174 24.854Z" fill="#4B6BFB"></path><path d="M90.1915 24.854C88.8688 24.854 87.7062 24.534 86.7035 23.894C85.7222 23.2327 84.9541 22.2834 84.3995 21.046C83.8661 19.8087 83.5995 18.326 83.5995 16.598C83.5995 14.806 83.8768 13.2914 84.4315 12.054C85.0075 10.8167 85.7968 9.86736 86.7995 9.20603C87.8235 8.5447 88.9968 8.21403 90.3195 8.21403C91.7702 8.21403 92.9328 8.66203 93.8075 9.55803C94.7035 10.4327 95.2795 11.5527 95.5355 12.918L95.0235 13.59V1.75003H100.463V24.534H95.5995L95.2475 19.094L95.8875 19.574C95.7595 20.6407 95.4288 21.5687 94.8955 22.358C94.3835 23.1474 93.7222 23.766 92.9115 24.214C92.1222 24.6407 91.2155 24.854 90.1915 24.854ZM92.0795 20.854C92.6981 20.854 93.2208 20.694 93.6475 20.374C94.0955 20.0327 94.4368 19.5314 94.6715 18.87C94.9062 18.2087 95.0235 17.398 95.0235 16.438C95.0235 15.542 94.9062 14.7847 94.6715 14.166C94.4582 13.526 94.1275 13.046 93.6795 12.726C93.2528 12.3847 92.7302 12.214 92.1115 12.214C91.1728 12.214 90.4262 12.566 89.8715 13.27C89.3382 13.9527 89.0715 15.0407 89.0715 16.534C89.0715 18.0274 89.3382 19.126 89.8715 19.83C90.4048 20.5127 91.1408 20.854 92.0795 20.854Z" fill="#4B6BFB"></path><path d="M80.8608 30.582C79.6021 30.582 78.5888 30.422 77.8208 30.102C77.0528 29.8034 76.4875 29.3553 76.1248 28.758C75.7835 28.1607 75.6128 27.446 75.6128 26.614V19.99C75.6128 18.7953 75.3355 17.942 74.7808 17.43C74.2475 16.918 73.3301 16.662 72.0288 16.662V14.422C73.3301 14.422 74.2475 14.166 74.7808 13.654C75.3355 13.142 75.6128 12.2887 75.6128 11.094V4.47001C75.6128 3.61668 75.7835 2.90201 76.1248 2.32602C76.4875 1.72868 77.0528 1.28068 77.8208 0.982014C78.5888 0.662014 79.6021 0.502014 80.8608 0.502014V2.58201C79.8155 2.58201 79.0795 2.72068 78.6528 2.99801C78.2261 3.27535 78.0128 3.70201 78.0128 4.27802V11.318C78.0128 12.47 77.7035 13.398 77.0848 14.102C76.4661 14.806 75.5595 15.286 74.3648 15.542C75.5595 15.798 76.4661 16.278 77.0848 16.982C77.7035 17.686 78.0128 18.614 78.0128 19.766V26.806C78.0128 27.382 78.2261 27.8087 78.6528 28.086C79.0795 28.3633 79.8155 28.502 80.8608 28.502V30.582Z" fill="#4B6BFB"></path><path d="M63.4815 14.39C63.4815 13.6434 63.2682 13.0567 62.8415 12.63C62.4362 12.182 61.8815 11.958 61.1775 11.958C60.4735 11.958 59.8655 12.1394 59.3535 12.502C58.8628 12.8434 58.5215 13.462 58.3295 14.358L53.7215 13.27C54.0202 11.734 54.8095 10.5074 56.0895 9.59002C57.3695 8.67269 59.1722 8.21402 61.4975 8.21402C63.0548 8.21402 64.3775 8.44869 65.4655 8.91802C66.5748 9.36602 67.4175 10.0487 67.9935 10.966C68.5908 11.862 68.8895 12.9714 68.8895 14.294V20.15C68.8895 20.982 69.2628 21.398 70.0095 21.398C70.3935 21.398 70.7028 21.3554 70.9375 21.27L70.6175 24.374C69.9775 24.6727 69.1988 24.822 68.2815 24.822C67.4495 24.822 66.7135 24.694 66.0735 24.438C65.4335 24.1607 64.9322 23.7554 64.5695 23.222C64.2068 22.6674 64.0255 21.974 64.0255 21.142V20.95L64.6335 20.726C64.6335 21.6434 64.3562 22.4114 63.8015 23.03C63.2682 23.6487 62.5642 24.1074 61.6895 24.406C60.8362 24.7047 59.9402 24.854 59.0015 24.854C57.9135 24.854 56.9642 24.6834 56.1535 24.342C55.3428 24.0007 54.7135 23.51 54.2655 22.87C53.8388 22.2087 53.6255 21.398 53.6255 20.438C53.6255 19.286 53.9668 18.3367 54.6495 17.59C55.3535 16.822 56.4522 16.2887 57.9455 15.99L63.9935 14.742L63.9615 17.622L60.8895 18.262C60.2495 18.39 59.7695 18.582 59.4495 18.838C59.1508 19.0727 59.0015 19.4354 59.0015 19.926C59.0015 20.3954 59.1722 20.7474 59.5135 20.982C59.8548 21.2167 60.2602 21.334 60.7295 21.334C61.0922 21.334 61.4335 21.2807 61.7535 21.174C62.0948 21.0674 62.3935 20.9074 62.6495 20.694C62.9055 20.4594 63.1082 20.1714 63.2575 19.83C63.4068 19.4887 63.4815 19.0834 63.4815 18.614V14.39Z" fill="#032D60"></path><path d="M46.9916 3.44601V18.838C46.9916 19.606 47.1729 20.1607 47.5356 20.502C47.9196 20.822 48.4422 20.982 49.1036 20.982C49.6156 20.982 50.0529 20.9287 50.4156 20.822C50.7996 20.694 51.1409 20.5127 51.4396 20.278L52.0156 23.638C51.4822 24.022 50.8102 24.3207 49.9996 24.534C49.1889 24.7473 48.3569 24.854 47.5036 24.854C46.2876 24.854 45.2316 24.6833 44.3356 24.342C43.4609 24.0007 42.7782 23.4567 42.2876 22.71C41.8182 21.9634 41.5729 20.9713 41.5516 19.734V4.95001L46.9916 3.44601ZM51.7596 8.53402V12.406H38.7996V8.53402H51.7596Z" fill="#032D60"></path><path d="M31.3252 14.39C31.3252 13.6434 31.1119 13.0567 30.6852 12.63C30.2799 12.182 29.7252 11.958 29.0212 11.958C28.3172 11.958 27.7092 12.1394 27.1972 12.502C26.7066 12.8434 26.3652 13.462 26.1732 14.358L21.5652 13.27C21.8639 11.734 22.6532 10.5074 23.9332 9.59002C25.2132 8.67269 27.0159 8.21402 29.3412 8.21402C30.8986 8.21402 32.2212 8.44869 33.3092 8.91802C34.4186 9.36602 35.2612 10.0487 35.8372 10.966C36.4346 11.862 36.7332 12.9714 36.7332 14.294V20.15C36.7332 20.982 37.1066 21.398 37.8532 21.398C38.2372 21.398 38.5466 21.3554 38.7812 21.27L38.4612 24.374C37.8212 24.6727 37.0426 24.822 36.1252 24.822C35.2932 24.822 34.5572 24.694 33.9172 24.438C33.2772 24.1607 32.7759 23.7554 32.4132 23.222C32.0506 22.6674 31.8692 21.974 31.8692 21.142V20.95L32.4772 20.726C32.4772 21.6434 32.1999 22.4114 31.6452 23.03C31.1119 23.6487 30.4079 24.1074 29.5332 24.406C28.6799 24.7047 27.7839 24.854 26.8452 24.854C25.7572 24.854 24.8079 24.6834 23.9972 24.342C23.1866 24.0007 22.5572 23.51 22.1092 22.87C21.6826 22.2087 21.4692 21.398 21.4692 20.438C21.4692 19.286 21.8106 18.3367 22.4932 17.59C23.1972 16.822 24.2959 16.2887 25.7892 15.99L31.8372 14.742L31.8052 17.622L28.7332 18.262C28.0932 18.39 27.6132 18.582 27.2932 18.838C26.9946 19.0727 26.8452 19.4354 26.8452 19.926C26.8452 20.3954 27.0159 20.7474 27.3572 20.982C27.6986 21.2167 28.1039 21.334 28.5732 21.334C28.9359 21.334 29.2772 21.2807 29.5972 21.174C29.9386 21.0674 30.2372 20.9074 30.4932 20.694C30.7492 20.4594 30.9519 20.1714 31.1012 19.83C31.2506 19.4887 31.3252 19.0834 31.3252 18.614V14.39Z" fill="#032D60"></path><path d="M8.96 3.41403C12.2667 3.41403 14.7947 4.33137 16.544 6.16603C18.3147 8.0007 19.2 10.6034 19.2 13.974C19.2 17.3447 18.3147 19.9474 16.544 21.782C14.7947 23.6167 12.2667 24.534 8.96 24.534H0V3.41403H8.96ZM8.416 20.374C10.208 20.374 11.5093 19.8407 12.32 18.774C13.152 17.686 13.568 16.086 13.568 13.974C13.568 11.862 13.152 10.2727 12.32 9.20603C11.5093 8.11803 10.208 7.57403 8.416 7.57403H5.504V20.374H8.416Z" fill="#032D60"></path></svg>